<?xml version="1.0"?>
<svg version="1.1" xmlns="http://www.w3.org/2000/svg" x="0" y="0" viewBox="0 0 100 100" xml:space="preserve">
<g>
<circle cx="25.904" cy="20.89" r="10.89" fill="#ffd6b0"/>
<path d="M20.07 90a4.14 4.14 0 0 1-4.14-4.14V70.38a4.14 4.14 0 0 1 8.28 0v15.48A4.14 4.14 0 0 1 20.07 90z" fill="#ffd6b0"/>
<path d="M31.737 90a4.14 4.14 0 0 1-4.14-4.14V70.38a4.14 4.14 0 0 1 8.28 0v15.48a4.14 4.14 0 0 1-4.14 4.14z" fill="#ffd6b0"/>
<path d="M5.766 55.765a4.14 4.14 0 0 1-1.018-5.766l9.73-13.899a4.14 4.14 0 1 1 6.783 4.749l-9.729 13.899a4.141 4.141 0 0 1-5.766 1.017z" fill="#ffd6b0"/>
<path d="M46.041 55.764a4.14 4.14 0 0 0 1.018-5.766L37.33 36.1a4.14 4.14 0 1 0-6.783 4.749l9.729 13.899a4.14 4.14 0 0 0 5.765 1.016z" fill="#ffd6b0"/>
<path d="M39.704 39.492l-4.632-6.617-.048-.069-.068-.098a4.805 4.805 0 0 0-3.891-1.986H20.743c-1.6 0-3.016.784-3.891 1.986l-.068.097-.048.069-4.356 6.223 3.551 2.485v22.883h19.947V42.17l3.826-2.678z"/>
<path fill="#3e4d8a" d="M31.742 58.527l-.005-.001-.004.001H15.93v11.879h8.28v-2.804h3.387v2.804h8.28V58.527z"/>
</g><g>
<circle cx="74.096" cy="20.89" r="10.89" fill="#c28851"/>
<path d="M68.263 90a4.14 4.14 0 0 1-4.14-4.14V70.38a4.14 4.14 0 0 1 8.28 0v15.48a4.141 4.141 0 0 1-4.14 4.14z" fill="#c28851"/>
<path d="M79.93 90a4.14 4.14 0 0 1-4.14-4.14V70.38a4.14 4.14 0 0 1 8.28 0v15.48A4.14 4.14 0 0 1 79.93 90z" fill="#c28851"/>
<path d="M53.959 55.765a4.14 4.14 0 0 1-1.018-5.766L62.67 36.1a4.14 4.14 0 1 1 6.783 4.749l-9.729 13.899a4.14 4.14 0 0 1-5.765 1.017z" fill="#c28851"/>
<path d="M94.234 55.764a4.14 4.14 0 0 0 1.018-5.766L85.522 36.1a4.14 4.14 0 1 0-6.783 4.749l9.729 13.899a4.14 4.14 0 0 0 5.766 1.016z" fill="#c28851"/>
<path d="M84.07 58.527V42.17l3.826-2.678-4.632-6.617-.048-.069-.068-.098a4.805 4.805 0 0 0-3.891-1.986H68.935c-1.6 0-3.016.784-3.891 1.986l-.068.097-.048.069-4.356 6.223 3.551 2.485v16.944H84.07z"/>
<path fill="#ed1e79" d="M84.07 58.527H64.123L59.122 70.38H89.07z"/>
</g><g>
<circle cx="50.035" cy="39.271" r="11.604" fill="#ffc28a" stroke="#fff" stroke-width="2" stroke-miterlimit="10"/>
<path d="M45.395 90.13a3.293 3.293 0 0 1-3.293-3.293v-7.26a3.293 3.293 0 1 1 6.586 0v7.26a3.293 3.293 0 0 1-3.293 3.293z" fill="#ffc28a"/>
<path d="M54.675 90.13a3.293 3.293 0 0 1-3.293-3.293v-7.26a3.293 3.293 0 1 1 6.586 0v7.26a3.293 3.293 0 0 1-3.293 3.293z" fill="#ffc28a"/>
<path d="M35.836 65.356a3.293 3.293 0 0 1-.809-4.586l5.921-8.458a3.293 3.293 0 1 1 5.395 3.777l-5.921 8.458a3.295 3.295 0 0 1-4.586.809z" fill="#ffc28a"/>
<path d="M64.125 65.198a3.385 3.385 0 0 0 .832-4.715l-5.704-8.149a3.385 3.385 0 1 0-5.547 3.883l5.704 8.149a3.385 3.385 0 0 0 4.715.832z" fill="#ffc28a"/>
<path d="M61.012 55.009l-3.684-5.263-.038-.055-.054-.078a3.822 3.822 0 0 0-3.095-1.58h-8.21a3.822 3.822 0 0 0-3.095 1.58l-.054.077-.039.055-3.465 4.95 2.824 1.977v18.201h15.866V57.139l3.044-2.13z"/>
<path fill="#009245" d="M54.679 70.149H42.102v9.449h6.586v-2.23h2.694v2.23h6.586V70.149z"/>
</g>
</svg>